<mxfile host="app.diagrams.net" agent="Mozilla/5.0 (Windows NT 10.0; Win64; x64) AppleWebKit/537.36 (KHTML, like Gecko) Chrome/138.0.0.0 Safari/537.36 Edg/138.0.0.0" version="28.0.4">
  <diagram name="Page-1" id="Yay8gkdrrfTUArw_L0t_">
    <mxGraphModel dx="994" dy="536" grid="1" gridSize="10" guides="1" tooltips="1" connect="1" arrows="1" fold="1" page="1" pageScale="1" pageWidth="850" pageHeight="1400" math="0" shadow="0">
      <root>
        <mxCell id="0" />
        <mxCell id="1" parent="0" />
        <mxCell id="YleI4EzTrmfIdfU0BML3-51" value="" style="rounded=0;whiteSpace=wrap;html=1;fillColor=#fff2cc;strokeColor=#d6b656;" parent="1" vertex="1">
          <mxGeometry x="528" y="300" width="252" height="240" as="geometry" />
        </mxCell>
        <mxCell id="YleI4EzTrmfIdfU0BML3-26" value="" style="rounded=0;whiteSpace=wrap;html=1;fillColor=#d5e8d4;strokeColor=#82b366;" parent="1" vertex="1">
          <mxGeometry x="13" y="300" width="465" height="340" as="geometry" />
        </mxCell>
        <mxCell id="YleI4EzTrmfIdfU0BML3-27" value="" style="rounded=0;whiteSpace=wrap;html=1;fillColor=#dae8fc;strokeColor=#6c8ebf;" parent="1" vertex="1">
          <mxGeometry x="340" y="421" width="121" height="200" as="geometry" />
        </mxCell>
        <mxCell id="YleI4EzTrmfIdfU0BML3-15" value="" style="rounded=0;whiteSpace=wrap;html=1;fillColor=#f5f5f5;strokeColor=#666666;fontColor=#333333;" parent="1" vertex="1">
          <mxGeometry x="60" y="511" width="131.5" height="110" as="geometry" />
        </mxCell>
        <mxCell id="YleI4EzTrmfIdfU0BML3-53" style="edgeStyle=none;rounded=0;orthogonalLoop=1;jettySize=auto;html=1;strokeWidth=2;strokeColor=light-dark(#063fea, #ededed);exitX=0.008;exitY=0.35;exitDx=0;exitDy=0;exitPerimeter=0;" parent="1" source="YleI4EzTrmfIdfU0BML3-27" target="ynbUYO4sn585GT9K957H-1" edge="1">
          <mxGeometry relative="1" as="geometry">
            <mxPoint x="381" y="426" as="targetPoint" />
          </mxGeometry>
        </mxCell>
        <mxCell id="YleI4EzTrmfIdfU0BML3-10" value="&lt;div&gt;Rustdesk Agent&lt;/div&gt;Production PC" style="sketch=0;pointerEvents=1;shadow=0;dashed=0;html=1;strokeColor=none;fillColor=#00BEF2;labelPosition=center;verticalLabelPosition=bottom;verticalAlign=top;outlineConnect=0;align=center;shape=image;labelBackgroundColor=default;points=[];aspect=fixed;image=img/lib/allied_telesis/computer_and_terminals/Personal_Computer_with_Server.svg;" parent="1" vertex="1">
          <mxGeometry x="375" y="524" width="51" height="52" as="geometry" />
        </mxCell>
        <mxCell id="YleI4EzTrmfIdfU0BML3-17" value="" style="rounded=0;whiteSpace=wrap;html=1;fillColor=#f5f5f5;strokeColor=#666666;fontColor=#333333;" parent="1" vertex="1">
          <mxGeometry x="594.53" y="320" width="118.95" height="110" as="geometry" />
        </mxCell>
        <mxCell id="YleI4EzTrmfIdfU0BML3-31" value="&lt;b&gt;Machine Network&lt;/b&gt;" style="text;html=1;align=center;verticalAlign=middle;whiteSpace=wrap;rounded=0;" parent="1" vertex="1">
          <mxGeometry x="564" y="260" width="110" height="30" as="geometry" />
        </mxCell>
        <mxCell id="ynbUYO4sn585GT9K957H-1" value="Rustdesk Server&lt;br&gt;SVEPE0097&lt;div&gt;Signaling Server&lt;/div&gt;" style="image;sketch=0;aspect=fixed;html=1;points=[];align=center;fontSize=12;image=img/lib/mscae/VM_Linux.svg;" vertex="1" parent="1">
          <mxGeometry x="88" y="319.2" width="80" height="73.6" as="geometry" />
        </mxCell>
        <mxCell id="ynbUYO4sn585GT9K957H-3" value="WAPT Server&lt;div&gt;Rustdesk Controller&lt;/div&gt;" style="image;sketch=0;aspect=fixed;html=1;points=[];align=center;fontSize=12;image=img/lib/mscae/VirtualMachineWindows.svg;" vertex="1" parent="1">
          <mxGeometry x="101.5" y="529" width="50" height="46" as="geometry" />
        </mxCell>
        <mxCell id="ynbUYO4sn585GT9K957H-7" style="edgeStyle=none;rounded=0;orthogonalLoop=1;jettySize=auto;html=1;strokeWidth=2;strokeColor=light-dark(#063fea, #ededed);exitX=0.568;exitY=-0.052;exitDx=0;exitDy=0;exitPerimeter=0;" edge="1" parent="1" source="ynbUYO4sn585GT9K957H-3" target="ynbUYO4sn585GT9K957H-1">
          <mxGeometry relative="1" as="geometry">
            <mxPoint x="128" y="434" as="sourcePoint" />
            <mxPoint x="25" y="380" as="targetPoint" />
          </mxGeometry>
        </mxCell>
        <mxCell id="ynbUYO4sn585GT9K957H-8" value="&lt;b&gt;Production Network&lt;/b&gt;" style="text;html=1;align=center;verticalAlign=middle;whiteSpace=wrap;rounded=0;" vertex="1" parent="1">
          <mxGeometry x="158" y="260" width="142.5" height="30" as="geometry" />
        </mxCell>
        <mxCell id="ynbUYO4sn585GT9K957H-11" value="&lt;div&gt;Rustdesk Agent&lt;/div&gt;Machine PC" style="sketch=0;pointerEvents=1;shadow=0;dashed=0;html=1;strokeColor=none;fillColor=#00BEF2;labelPosition=center;verticalLabelPosition=bottom;verticalAlign=top;outlineConnect=0;align=center;shape=image;labelBackgroundColor=default;points=[];aspect=fixed;image=img/lib/allied_telesis/computer_and_terminals/Personal_Computer_with_Server.svg;" vertex="1" parent="1">
          <mxGeometry x="627.48" y="330.8" width="51" height="52" as="geometry" />
        </mxCell>
        <mxCell id="ynbUYO4sn585GT9K957H-12" style="edgeStyle=none;rounded=0;orthogonalLoop=1;jettySize=auto;html=1;strokeWidth=2;strokeColor=light-dark(#063fea, #ededed);" edge="1" parent="1" source="ynbUYO4sn585GT9K957H-11" target="ynbUYO4sn585GT9K957H-1">
          <mxGeometry relative="1" as="geometry">
            <mxPoint x="468" y="452.5" as="sourcePoint" />
            <mxPoint x="378" y="361.5" as="targetPoint" />
          </mxGeometry>
        </mxCell>
        <mxCell id="ynbUYO4sn585GT9K957H-15" value="&lt;div&gt;Rustdesk Agent&lt;/div&gt;Production PC" style="sketch=0;pointerEvents=1;shadow=0;dashed=0;html=1;strokeColor=none;fillColor=#00BEF2;labelPosition=center;verticalLabelPosition=bottom;verticalAlign=top;outlineConnect=0;align=center;shape=image;labelBackgroundColor=default;points=[];aspect=fixed;image=img/lib/allied_telesis/computer_and_terminals/Personal_Computer_with_Server.svg;" vertex="1" parent="1">
          <mxGeometry x="375" y="441" width="51" height="52" as="geometry" />
        </mxCell>
      </root>
    </mxGraphModel>
  </diagram>
</mxfile>
